<svg id="visual" viewBox="0 0 900 600" width="900" height="600" xmlns="http://www.w3.org/2000/svg" xmlns:xlink="http://www.w3.org/1999/xlink" version="1.1"><rect x="0" y="0" width="900" height="600" fill="#d6e0ff"></rect><path d="M0 310L21.5 324.7C43 339.3 86 368.7 128.8 375.7C171.7 382.7 214.3 367.3 257.2 355.8C300 344.3 343 336.7 385.8 321.8C428.7 307 471.3 285 514.2 285.8C557 286.7 600 310.3 642.8 332C685.7 353.7 728.3 373.3 771.2 378.7C814 384 857 375 878.5 370.5L900 366L900 601L878.5 601C857 601 814 601 771.2 601C728.3 601 685.7 601 642.8 601C600 601 557 601 514.2 601C471.3 601 428.7 601 385.8 601C343 601 300 601 257.2 601C214.3 601 171.7 601 128.8 601C86 601 43 601 21.5 601L0 601Z" fill="#e1e9ff" stroke-linecap="round" stroke-linejoin="miter"></path></svg>